<svg id="Layer_1" data-name="Layer 1" xmlns="http://www.w3.org/2000/svg" viewBox="0 0 18.8 16.87"><defs><style>.cls-1{fill:#237f00;}.cls-1,.cls-2,.cls-3,.cls-4,.cls-5{stroke:#000;stroke-miterlimit:10;}.cls-2{fill:#554000;}.cls-2,.cls-3,.cls-4,.cls-5{stroke-width:0.5px;}.cls-3{fill:none;}.cls-4{fill:#3a0;}.cls-5{fill:#b5b5b5;}</style></defs><title>Tank4</title><rect class="cls-1" x="4.73" y="4.65" width="15.87" height="15.87" transform="translate(-2.21 21.1) rotate(-90)"/><rect class="cls-2" x="10.35" y="10.26" width="4.63" height="15.87" transform="translate(-7.83 26.72) rotate(-90)"/><rect class="cls-2" x="10.35" y="-0.97" width="4.63" height="15.87" transform="translate(3.41 15.48) rotate(-90)"/><line class="cls-3" x1="3.84" y1="15.9" x2="3.84" y2="12.17"/><line class="cls-3" x1="5.01" y1="15.9" x2="5.01" y2="12.17"/><line class="cls-3" x1="6.19" y1="15.9" x2="6.19" y2="12.17"/><line class="cls-3" x1="7.36" y1="15.9" x2="7.36" y2="12.17"/><line class="cls-3" x1="8.54" y1="15.9" x2="8.54" y2="12.17"/><line class="cls-3" x1="9.71" y1="15.9" x2="9.71" y2="12.17"/><line class="cls-3" x1="10.88" y1="15.9" x2="10.88" y2="12.17"/><line class="cls-3" x1="12.06" y1="15.9" x2="12.06" y2="12.17"/><line class="cls-3" x1="13.23" y1="15.9" x2="13.23" y2="12.17"/><line class="cls-3" x1="14.41" y1="15.9" x2="14.41" y2="12.17"/><line class="cls-3" x1="15.58" y1="15.9" x2="15.58" y2="12.17"/><line class="cls-3" x1="16.76" y1="15.9" x2="16.76" y2="12.17"/><line class="cls-3" x1="3.63" y1="5.29" x2="3.63" y2="1.29"/><line class="cls-3" x1="5.01" y1="4.67" x2="5.01" y2="0.94"/><line class="cls-3" x1="6.19" y1="4.67" x2="6.19" y2="0.94"/><line class="cls-3" x1="7.36" y1="4.67" x2="7.36" y2="0.94"/><line class="cls-3" x1="8.54" y1="4.67" x2="8.54" y2="0.94"/><line class="cls-3" x1="9.71" y1="4.67" x2="9.71" y2="0.94"/><line class="cls-3" x1="10.88" y1="4.67" x2="10.88" y2="0.94"/><line class="cls-3" x1="12.06" y1="4.67" x2="12.06" y2="0.94"/><line class="cls-3" x1="13.23" y1="4.67" x2="13.23" y2="0.94"/><circle class="cls-4" cx="10.37" cy="8.43" r="5.6"/><line class="cls-3" x1="14.41" y1="4.67" x2="14.41" y2="0.94"/><line class="cls-3" x1="15.58" y1="4.67" x2="15.58" y2="0.94"/><line class="cls-3" x1="16.76" y1="4.67" x2="16.76" y2="0.94"/><rect class="cls-5" x="6.71" y="7.25" width="2.48" height="10.81" rx="0.34" ry="0.34" transform="translate(-7 16.45) rotate(-90)"/></svg>