<svg id="Layer_1" data-name="Layer 1" xmlns="http://www.w3.org/2000/svg" viewBox="0 0 16.87 18.8"><defs><style>.cls-1{fill:#237f00;}.cls-1,.cls-2,.cls-3,.cls-4,.cls-5{stroke:#000;stroke-miterlimit:10;}.cls-2{fill:#554000;}.cls-2,.cls-3,.cls-4,.cls-5{stroke-width:0.5px;}.cls-3{fill:none;}.cls-4{fill:#3a0;}.cls-5{fill:#b5b5b5;}</style></defs><title>Tank6</title><rect class="cls-1" x="4.64" y="4.3" width="15.87" height="15.87" transform="translate(21 20.67) rotate(180)"/><rect class="cls-2" x="15.87" y="4.3" width="4.63" height="15.87" transform="translate(32.24 20.67) rotate(180)"/><rect class="cls-2" x="4.64" y="4.3" width="4.63" height="15.87" transform="translate(9.76 20.67) rotate(-180)"/><line class="cls-3" x1="15.9" y1="14.97" x2="12.17" y2="14.97"/><line class="cls-3" x1="15.9" y1="13.79" x2="12.17" y2="13.79"/><line class="cls-3" x1="15.9" y1="12.62" x2="12.17" y2="12.62"/><line class="cls-3" x1="15.9" y1="11.44" x2="12.17" y2="11.44"/><line class="cls-3" x1="15.9" y1="10.27" x2="12.17" y2="10.27"/><line class="cls-3" x1="15.9" y1="9.09" x2="12.17" y2="9.09"/><line class="cls-3" x1="15.9" y1="7.92" x2="12.17" y2="7.92"/><line class="cls-3" x1="15.9" y1="6.74" x2="12.17" y2="6.74"/><line class="cls-3" x1="15.9" y1="5.57" x2="12.17" y2="5.57"/><line class="cls-3" x1="15.9" y1="4.39" x2="12.17" y2="4.39"/><line class="cls-3" x1="15.9" y1="3.22" x2="12.17" y2="3.22"/><line class="cls-3" x1="15.9" y1="2.05" x2="12.17" y2="2.05"/><line class="cls-3" x1="5.29" y1="15.18" x2="1.29" y2="15.18"/><line class="cls-3" x1="4.67" y1="13.79" x2="0.94" y2="13.79"/><line class="cls-3" x1="4.67" y1="12.62" x2="0.94" y2="12.62"/><line class="cls-3" x1="4.67" y1="11.44" x2="0.94" y2="11.44"/><line class="cls-3" x1="4.67" y1="10.27" x2="0.94" y2="10.27"/><line class="cls-3" x1="4.67" y1="9.09" x2="0.94" y2="9.09"/><line class="cls-3" x1="4.67" y1="7.92" x2="0.94" y2="7.92"/><line class="cls-3" x1="4.67" y1="6.74" x2="0.94" y2="6.74"/><line class="cls-3" x1="4.67" y1="5.57" x2="0.94" y2="5.57"/><circle class="cls-4" cx="8.43" cy="8.43" r="5.6"/><line class="cls-3" x1="4.67" y1="4.39" x2="0.94" y2="4.39"/><line class="cls-3" x1="4.67" y1="3.22" x2="0.94" y2="3.22"/><line class="cls-3" x1="4.67" y1="2.05" x2="0.94" y2="2.05"/><rect class="cls-5" x="11.4" y="11.55" width="2.48" height="10.81" rx="0.34" ry="0.34" transform="translate(21.15 30.1) rotate(-180)"/></svg>