<svg id="Layer_1" data-name="Layer 1" xmlns="http://www.w3.org/2000/svg" viewBox="0 0 18 20.09"><defs><style>.cls-1{fill:#237f00;}.cls-1,.cls-2,.cls-3,.cls-4,.cls-5{stroke:#000;stroke-miterlimit:10;}.cls-2{fill:#554000;}.cls-2,.cls-3,.cls-4,.cls-5{stroke-width:0.5px;}.cls-3{fill:none;}.cls-4{fill:#3a0;}.cls-5{fill:#b5b5b5;}</style></defs><title>Tank2</title><rect class="cls-1" x="0.5" y="2.59" width="17" height="17"/><rect class="cls-2" x="0.5" y="2.59" width="4.96" height="17"/><rect class="cls-2" x="12.54" y="2.59" width="4.96" height="17"/><line class="cls-3" x1="1" y1="4.09" x2="5" y2="4.09"/><line class="cls-3" x1="1" y1="5.35" x2="5" y2="5.35"/><line class="cls-3" x1="1" y1="6.61" x2="5" y2="6.61"/><line class="cls-3" x1="1" y1="7.87" x2="5" y2="7.87"/><line class="cls-3" x1="1" y1="9.13" x2="5" y2="9.13"/><line class="cls-3" x1="1" y1="10.39" x2="5" y2="10.39"/><line class="cls-3" x1="1" y1="11.64" x2="5" y2="11.64"/><line class="cls-3" x1="1" y1="12.9" x2="5" y2="12.9"/><line class="cls-3" x1="1" y1="14.16" x2="5" y2="14.16"/><line class="cls-3" x1="1" y1="15.42" x2="5" y2="15.42"/><line class="cls-3" x1="1" y1="16.68" x2="5" y2="16.68"/><line class="cls-3" x1="1" y1="17.94" x2="5" y2="17.94"/><line class="cls-3" x1="13.03" y1="4.09" x2="17.03" y2="4.09"/><line class="cls-3" x1="13.03" y1="5.35" x2="17.03" y2="5.35"/><line class="cls-3" x1="13.03" y1="6.61" x2="17.03" y2="6.61"/><line class="cls-3" x1="13.03" y1="7.87" x2="17.03" y2="7.87"/><line class="cls-3" x1="13.03" y1="9.13" x2="17.03" y2="9.13"/><line class="cls-3" x1="13.03" y1="10.39" x2="17.03" y2="10.39"/><line class="cls-3" x1="13.03" y1="11.64" x2="17.03" y2="11.64"/><line class="cls-3" x1="13.03" y1="12.9" x2="17.03" y2="12.9"/><line class="cls-3" x1="13.03" y1="14.16" x2="17.03" y2="14.16"/><circle class="cls-4" cx="9" cy="11.09" r="6"/><line class="cls-3" x1="13.03" y1="15.42" x2="17.03" y2="15.42"/><line class="cls-3" x1="13.03" y1="16.68" x2="17.03" y2="16.68"/><line class="cls-3" x1="13.03" y1="17.94" x2="17.03" y2="17.94"/><rect class="cls-5" x="7.59" y="0.25" width="2.66" height="11.58" rx="0.34" ry="0.34"/></svg>