<svg id="Layer_1" data-name="Layer 1" xmlns="http://www.w3.org/2000/svg" viewBox="0 0 23.85 23.85"><defs><style>.cls-1{fill:#237f00;}.cls-1,.cls-2,.cls-3,.cls-4,.cls-5{stroke:#000;stroke-miterlimit:10;}.cls-2{fill:#554000;}.cls-2,.cls-3,.cls-4,.cls-5{stroke-width:0.5px;}.cls-3{fill:none;}.cls-4{fill:#3a0;}.cls-5{fill:#b5b5b5;}</style></defs><title>Tank3</title><rect class="cls-1" x="4.71" y="4.53" width="15.87" height="15.87" transform="translate(-5.83 12.05) rotate(-45)"/><rect class="cls-2" x="6.36" y="8.51" width="4.63" height="15.87" transform="translate(-9.8 10.41) rotate(-45)"/><rect class="cls-2" x="14.3" y="0.56" width="4.63" height="15.87" transform="translate(-1.86 13.7) rotate(-45)"/><line class="cls-3" x1="2.03" y1="12.59" x2="4.67" y2="9.95"/><line class="cls-3" x1="2.86" y1="13.42" x2="5.5" y2="10.78"/><line class="cls-3" x1="3.69" y1="14.25" x2="6.33" y2="11.61"/><line class="cls-3" x1="4.52" y1="15.08" x2="7.16" y2="12.44"/><line class="cls-3" x1="5.35" y1="15.91" x2="7.99" y2="13.27"/><line class="cls-3" x1="6.18" y1="16.74" x2="8.82" y2="14.1"/><line class="cls-3" x1="7.01" y1="17.57" x2="9.65" y2="14.93"/><line class="cls-3" x1="7.84" y1="18.4" x2="10.48" y2="15.76"/><line class="cls-3" x1="8.67" y1="19.23" x2="11.31" y2="16.59"/><line class="cls-3" x1="9.5" y1="20.06" x2="12.14" y2="17.42"/><line class="cls-3" x1="10.33" y1="20.89" x2="12.97" y2="18.25"/><line class="cls-3" x1="11.16" y1="21.72" x2="13.8" y2="19.08"/><line class="cls-3" x1="9.38" y1="4.93" x2="12.21" y2="2.1"/><line class="cls-3" x1="10.8" y1="5.48" x2="13.44" y2="2.84"/><line class="cls-3" x1="11.63" y1="6.31" x2="14.27" y2="3.67"/><line class="cls-3" x1="12.46" y1="7.14" x2="15.1" y2="4.5"/><line class="cls-3" x1="13.29" y1="7.97" x2="15.93" y2="5.33"/><line class="cls-3" x1="14.12" y1="8.8" x2="16.76" y2="6.16"/><line class="cls-3" x1="14.95" y1="9.63" x2="17.59" y2="6.99"/><line class="cls-3" x1="15.78" y1="10.46" x2="18.42" y2="7.82"/><line class="cls-3" x1="16.61" y1="11.29" x2="19.25" y2="8.65"/><circle class="cls-4" cx="11.93" cy="11.93" r="5.6"/><line class="cls-3" x1="17.44" y1="12.12" x2="20.08" y2="9.48"/><line class="cls-3" x1="18.27" y1="12.95" x2="20.91" y2="10.31"/><line class="cls-3" x1="19.1" y1="13.78" x2="21.74" y2="11.14"/><rect class="cls-5" x="8.02" y="3.78" width="2.48" height="10.81" rx="0.34" ry="0.34" transform="translate(-4.5 8.7) rotate(-45)"/></svg>