<svg id="Layer_1" data-name="Layer 1" xmlns="http://www.w3.org/2000/svg" viewBox="0 0 23.85 23.85"><defs><style>.cls-1{fill:#237f00;}.cls-1,.cls-2,.cls-3,.cls-4,.cls-5{stroke:#000;stroke-miterlimit:10;}.cls-2{fill:#554000;}.cls-2,.cls-3,.cls-4,.cls-5{stroke-width:0.5px;}.cls-3{fill:none;}.cls-4{fill:#3a0;}.cls-5{fill:#b5b5b5;}</style></defs><title>Tank5</title><rect class="cls-1" x="4.47" y="4.68" width="15.87" height="15.87" transform="translate(11.78 29.62) rotate(-135)"/><rect class="cls-2" x="14.07" y="8.66" width="4.63" height="15.87" transform="translate(15.75 39.21) rotate(-135)"/><rect class="cls-2" x="6.12" y="0.71" width="4.63" height="15.87" transform="translate(7.8 20.03) rotate(-135)"/><line class="cls-3" x1="12.59" y1="21.83" x2="9.95" y2="19.19"/><line class="cls-3" x1="13.42" y1="20.99" x2="10.78" y2="18.35"/><line class="cls-3" x1="14.25" y1="20.16" x2="11.61" y2="17.52"/><line class="cls-3" x1="15.08" y1="19.33" x2="12.44" y2="16.69"/><line class="cls-3" x1="15.91" y1="18.5" x2="13.27" y2="15.86"/><line class="cls-3" x1="16.74" y1="17.67" x2="14.1" y2="15.03"/><line class="cls-3" x1="17.57" y1="16.84" x2="14.93" y2="14.2"/><line class="cls-3" x1="18.4" y1="16.01" x2="15.76" y2="13.37"/><line class="cls-3" x1="19.23" y1="15.18" x2="16.59" y2="12.54"/><line class="cls-3" x1="20.06" y1="14.35" x2="17.42" y2="11.71"/><line class="cls-3" x1="20.89" y1="13.52" x2="18.25" y2="10.88"/><line class="cls-3" x1="21.72" y1="12.69" x2="19.08" y2="10.05"/><line class="cls-3" x1="4.93" y1="14.47" x2="2.1" y2="11.64"/><line class="cls-3" x1="5.48" y1="13.05" x2="2.84" y2="10.41"/><line class="cls-3" x1="6.31" y1="12.22" x2="3.67" y2="9.58"/><line class="cls-3" x1="7.14" y1="11.39" x2="4.5" y2="8.75"/><line class="cls-3" x1="7.97" y1="10.56" x2="5.33" y2="7.92"/><line class="cls-3" x1="8.8" y1="9.73" x2="6.16" y2="7.09"/><line class="cls-3" x1="9.63" y1="8.9" x2="6.99" y2="6.26"/><line class="cls-3" x1="10.46" y1="8.07" x2="7.82" y2="5.43"/><line class="cls-3" x1="11.29" y1="7.24" x2="8.65" y2="4.6"/><circle class="cls-4" cx="11.93" cy="11.93" r="5.6"/><line class="cls-3" x1="12.12" y1="6.41" x2="9.48" y2="3.77"/><line class="cls-3" x1="12.95" y1="5.58" x2="10.31" y2="2.94"/><line class="cls-3" x1="13.78" y1="4.75" x2="11.14" y2="2.11"/><rect class="cls-5" x="7.88" y="10.6" width="2.48" height="10.81" rx="0.34" ry="0.34" transform="translate(3.78 33.08) rotate(-135)"/></svg>