<svg id="Layer_1" data-name="Layer 1" xmlns="http://www.w3.org/2000/svg" viewBox="0 0 23.85 23.85"><defs><style>.cls-1{fill:#237f00;}.cls-1,.cls-2,.cls-3,.cls-4,.cls-5{stroke:#000;stroke-miterlimit:10;}.cls-2{fill:#554000;}.cls-2,.cls-3,.cls-4,.cls-5{stroke-width:0.5px;}.cls-3{fill:none;}.cls-4{fill:#3a0;}.cls-5{fill:#b5b5b5;}</style></defs><title>Tank1</title><rect class="cls-1" x="4.54" y="4.67" width="15.87" height="15.87" transform="translate(12.01 -5.81) rotate(45)"/><rect class="cls-2" x="6.19" y="0.7" width="4.63" height="15.87" transform="translate(8.04 -4.16) rotate(45)"/><rect class="cls-2" x="14.14" y="8.64" width="4.63" height="15.87" transform="translate(15.99 -7.45) rotate(45)"/><line class="cls-3" x1="11.27" y1="2.03" x2="13.91" y2="4.67"/><line class="cls-3" x1="10.44" y1="2.86" x2="13.08" y2="5.5"/><line class="cls-3" x1="9.6" y1="3.69" x2="12.24" y2="6.33"/><line class="cls-3" x1="8.77" y1="4.52" x2="11.41" y2="7.16"/><line class="cls-3" x1="7.94" y1="5.35" x2="10.58" y2="7.99"/><line class="cls-3" x1="7.11" y1="6.18" x2="9.75" y2="8.82"/><line class="cls-3" x1="6.28" y1="7.01" x2="8.92" y2="9.65"/><line class="cls-3" x1="5.45" y1="7.84" x2="8.09" y2="10.48"/><line class="cls-3" x1="4.62" y1="8.67" x2="7.26" y2="11.31"/><line class="cls-3" x1="3.79" y1="9.5" x2="6.43" y2="12.14"/><line class="cls-3" x1="2.96" y1="10.33" x2="5.6" y2="12.97"/><line class="cls-3" x1="2.13" y1="11.16" x2="4.77" y2="13.8"/><line class="cls-3" x1="18.92" y1="9.38" x2="21.75" y2="12.21"/><line class="cls-3" x1="18.38" y1="10.8" x2="21.02" y2="13.44"/><line class="cls-3" x1="17.54" y1="11.63" x2="20.18" y2="14.27"/><line class="cls-3" x1="16.71" y1="12.46" x2="19.35" y2="15.1"/><line class="cls-3" x1="15.88" y1="13.29" x2="18.52" y2="15.93"/><line class="cls-3" x1="15.05" y1="14.12" x2="17.69" y2="16.76"/><line class="cls-3" x1="14.22" y1="14.95" x2="16.86" y2="17.59"/><line class="cls-3" x1="13.39" y1="15.78" x2="16.03" y2="18.42"/><line class="cls-3" x1="12.56" y1="16.61" x2="15.2" y2="19.25"/><circle class="cls-4" cx="11.93" cy="11.93" r="5.6"/><line class="cls-3" x1="11.73" y1="17.44" x2="14.37" y2="20.08"/><line class="cls-3" x1="10.9" y1="18.27" x2="13.54" y2="20.91"/><line class="cls-3" x1="10.07" y1="19.1" x2="12.71" y2="21.74"/><rect class="cls-5" x="14.52" y="3.81" width="2.48" height="10.81" rx="0.34" ry="0.34" transform="translate(10.58 -9.12) rotate(45)"/></svg>