<svg id="Layer_1" data-name="Layer 1" xmlns="http://www.w3.org/2000/svg" viewBox="0 0 18.8 16.87"><defs><style>.cls-1{fill:#237f00;}.cls-1,.cls-2,.cls-3,.cls-4,.cls-5{stroke:#000;stroke-miterlimit:10;}.cls-2{fill:#554000;}.cls-2,.cls-3,.cls-4,.cls-5{stroke-width:0.5px;}.cls-3{fill:none;}.cls-4{fill:#3a0;}.cls-5{fill:#b5b5b5;}</style></defs><title>Tank0</title><rect class="cls-1" x="4.22" y="3.9" width="15.87" height="15.87" transform="translate(20.26 -3.72) rotate(90)"/><rect class="cls-2" x="9.84" y="-1.72" width="4.63" height="15.87" transform="translate(14.64 -9.34) rotate(90)"/><rect class="cls-2" x="9.84" y="9.51" width="4.63" height="15.87" transform="translate(25.88 1.9) rotate(90)"/><line class="cls-3" x1="14.97" y1="0.97" x2="14.97" y2="4.7"/><line class="cls-3" x1="13.79" y1="0.97" x2="13.79" y2="4.7"/><line class="cls-3" x1="12.62" y1="0.97" x2="12.62" y2="4.7"/><line class="cls-3" x1="11.44" y1="0.97" x2="11.44" y2="4.7"/><line class="cls-3" x1="10.27" y1="0.97" x2="10.27" y2="4.7"/><line class="cls-3" x1="9.09" y1="0.97" x2="9.09" y2="4.7"/><line class="cls-3" x1="7.92" y1="0.97" x2="7.92" y2="4.7"/><line class="cls-3" x1="6.74" y1="0.97" x2="6.74" y2="4.7"/><line class="cls-3" x1="5.57" y1="0.97" x2="5.57" y2="4.7"/><line class="cls-3" x1="4.39" y1="0.97" x2="4.39" y2="4.7"/><line class="cls-3" x1="3.22" y1="0.97" x2="3.22" y2="4.7"/><line class="cls-3" x1="2.05" y1="0.97" x2="2.05" y2="4.7"/><line class="cls-3" x1="15.18" y1="11.58" x2="15.18" y2="15.58"/><line class="cls-3" x1="13.79" y1="12.2" x2="13.79" y2="15.93"/><line class="cls-3" x1="12.62" y1="12.2" x2="12.62" y2="15.93"/><line class="cls-3" x1="11.44" y1="12.2" x2="11.44" y2="15.93"/><line class="cls-3" x1="10.27" y1="12.2" x2="10.27" y2="15.93"/><line class="cls-3" x1="9.09" y1="12.2" x2="9.09" y2="15.93"/><line class="cls-3" x1="7.92" y1="12.2" x2="7.92" y2="15.93"/><line class="cls-3" x1="6.74" y1="12.2" x2="6.74" y2="15.93"/><line class="cls-3" x1="5.57" y1="12.2" x2="5.57" y2="15.93"/><circle class="cls-4" cx="8.43" cy="8.43" r="5.6"/><line class="cls-3" x1="4.39" y1="12.2" x2="4.39" y2="15.93"/><line class="cls-3" x1="3.22" y1="12.2" x2="3.22" y2="15.93"/><line class="cls-3" x1="2.05" y1="12.2" x2="2.05" y2="15.93"/><rect class="cls-5" x="15.63" y="6.35" width="2.48" height="10.81" rx="0.34" ry="0.34" transform="translate(24.9 -8.51) rotate(90)"/></svg>